<?xml version="1.0" standalone="no"?>
<!DOCTYPE svg PUBLIC "-//W3C//DTD SVG 20010904//EN"
 "http://www.w3.org/TR/2001/REC-SVG-20010904/DTD/svg10.dtd">
<svg version="1.0" xmlns="http://www.w3.org/2000/svg"
 width="512.000000pt" height="512.000000pt" viewBox="0 0 512.000000 512.000000"
 preserveAspectRatio="xMidYMid meet">

<g transform="translate(0.000000,512.000000) scale(0.100000,-0.100000)"
fill="#000000" stroke="none">
<path d="M1682 4697 c11 -214 110 -390 284 -507 l76 -50 -33 -12 c-19 -6 -68
-29 -109 -51 -396 -208 -663 -565 -752 -1007 -11 -58 -26 -108 -32 -112 -6 -4
-25 -8 -42 -8 -99 0 -327 -85 -451 -167 -73 -48 -192 -160 -250 -236 -132
-171 -213 -410 -213 -629 l0 -78 78 0 c201 0 406 63 582 179 76 50 203 173
258 250 l46 64 22 -112 c78 -395 290 -718 616 -936 77 -52 245 -139 291 -150
l27 -7 0 -226 0 -226 -120 -121 c-77 -78 -120 -129 -120 -143 0 -57 53 -102
102 -87 13 4 67 50 121 103 l97 97 98 -97 c53 -53 107 -99 120 -103 54 -16
111 41 97 97 -4 13 -58 76 -121 139 l-114 114 0 201 0 201 73 -15 c48 -10 130
-15 247 -15 117 0 199 5 248 15 l72 15 0 -201 0 -200 -120 -121 c-77 -78 -120
-129 -120 -143 0 -57 53 -102 102 -87 13 4 67 50 121 103 l97 97 98 -97 c53
-53 107 -99 120 -103 54 -16 111 41 97 97 -4 13 -58 76 -121 139 l-114 114 0
225 0 225 74 28 c195 75 418 242 562 421 154 191 249 397 298 649 l22 110 46
-64 c55 -77 182 -200 258 -250 171 -113 334 -165 548 -176 l112 -6 0 80 c0
161 -41 325 -117 475 -56 110 -120 194 -214 283 -88 83 -158 131 -271 185 -84
41 -255 90 -312 90 -17 0 -36 4 -42 8 -6 4 -21 54 -32 112 -92 458 -376 826
-793 1027 l-96 46 73 49 c172 115 271 293 282 505 l5 103 -194 0 c-132 0 -216
-5 -263 -15 -145 -31 -314 -142 -387 -255 -18 -28 -35 -50 -39 -50 -4 0 -24
25 -45 56 -55 79 -137 149 -230 195 -116 57 -186 69 -414 69 l-194 0 5 -103z
m378 -67 c155 -20 296 -122 364 -264 19 -39 37 -83 40 -98 l6 -28 -67 0 c-192
1 -315 44 -417 146 -54 54 -116 162 -130 227 l-6 27 67 0 c38 0 102 -5 143
-10z m1210 5 c0 -25 -48 -139 -76 -182 -92 -137 -220 -201 -426 -210 -65 -3
-118 -3 -118 1 0 20 44 133 65 166 75 118 192 196 330 219 57 10 225 14 225 6z
m-565 -566 c285 -35 536 -153 738 -348 191 -184 312 -401 369 -661 21 -97 23
-129 23 -420 0 -291 -2 -323 -23 -420 -111 -504 -492 -884 -993 -991 -147 -32
-371 -32 -518 0 -501 107 -882 487 -993 991 -21 97 -23 129 -23 420 0 291 2
323 23 419 54 245 161 447 331 625 278 289 675 433 1066 385z m-1595 -1302 c0
-44 -39 -175 -73 -250 -91 -198 -236 -343 -434 -434 -75 -34 -206 -73 -250
-73 -29 0 -30 20 -3 126 78 307 324 553 630 633 105 28 130 27 130 -2z m3026
3 c267 -68 487 -260 594 -517 35 -84 69 -227 57 -240 -13 -12 -156 22 -240 57
-207 86 -365 238 -463 443 -34 72 -74 209 -74 254 0 29 20 30 126 3z"/>
<path d="M1905 3661 c-22 -10 -56 -33 -74 -52 -151 -151 -44 -409 169 -409 66
0 122 24 169 71 151 151 44 409 -169 409 -32 0 -72 -8 -95 -19z"/>
<path d="M3025 3661 c-156 -70 -194 -271 -74 -390 94 -94 244 -95 337 -1 46
45 63 84 69 152 7 72 -14 131 -64 183 -71 73 -181 96 -268 56z"/>
<path d="M2383 3217 c-128 -128 -143 -146 -143 -177 0 -31 15 -49 143 -177
128 -128 146 -143 177 -143 31 0 49 15 177 143 128 128 143 146 143 177 0 31
-15 49 -143 177 -128 128 -146 143 -177 143 -31 0 -49 -15 -177 -143z"/>
</g>
</svg>
