<?xml version="1.0" standalone="no"?>
<!DOCTYPE svg PUBLIC "-//W3C//DTD SVG 20010904//EN"
 "http://www.w3.org/TR/2001/REC-SVG-20010904/DTD/svg10.dtd">
<svg version="1.0" xmlns="http://www.w3.org/2000/svg"
 width="512.000000pt" height="512.000000pt" viewBox="0 0 512.000000 512.000000"
 preserveAspectRatio="xMidYMid meet">

<g transform="translate(0.000000,512.000000) scale(0.100000,-0.100000)"
fill="#000000" stroke="none">
<path d="M1122 4947 c-46 -14 -115 -78 -136 -125 -17 -37 -21 -40 -43 -31 -33
12 -88 11 -137 -3 -55 -16 -138 -99 -154 -154 -8 -27 -12 -121 -12 -275 0
-225 -1 -236 -24 -294 l-25 -60 -68 -7 c-90 -10 -196 -62 -252 -124 -68 -72
-103 -158 -109 -265 l-5 -89 86 0 86 0 24 -52 c31 -67 88 -124 154 -155 l51
-24 5 -467 c5 -490 6 -508 56 -702 26 -98 89 -256 140 -350 281 -519 790 -845
1384 -886 l97 -7 0 -221 0 -220 -67 -68 -68 -68 58 -57 57 -58 90 90 90 90 0
257 0 258 160 0 160 0 0 -222 0 -222 -67 -68 -68 -68 58 -57 57 -58 90 90 90
89 2 261 3 260 82 7 c180 15 369 68 550 153 592 280 962 871 963 1534 l0 105
188 190 c213 215 228 239 220 345 -9 122 -100 211 -223 219 -88 6 -129 -11
-202 -81 l-63 -60 0 48 c0 72 -19 122 -67 175 -65 72 -151 96 -247 68 -55 -16
-138 -99 -154 -154 -8 -28 -12 -134 -12 -338 l0 -297 -777 3 c-776 3 -778 3
-836 25 -199 76 -342 239 -376 427 -6 33 -11 184 -11 335 0 297 -7 355 -54
469 -14 35 -43 90 -66 123 l-40 59 0 176 c0 214 -7 241 -75 309 -67 67 -156
93 -228 66 -22 -9 -26 -6 -43 31 -22 50 -91 111 -142 126 -47 14 -105 14 -150
-1z m280 -656 c81 -28 137 -63 201 -126 70 -69 112 -142 137 -241 18 -68 20
-111 20 -361 0 -330 7 -376 77 -523 39 -81 59 -108 137 -186 78 -78 105 -98
186 -137 168 -80 116 -77 1199 -77 l961 0 0 -67 c-1 -410 -161 -796 -449
-1083 -134 -134 -253 -219 -414 -295 -289 -137 -435 -159 -1012 -152 -426 5
-477 11 -676 77 -238 79 -423 193 -599 370 -259 259 -404 566 -441 933 -6 62
-9 372 -7 792 l3 690 27 69 c67 173 202 291 379 331 80 18 195 13 271 -14z
m-842 -531 l0 -80 -110 0 c-60 0 -110 3 -110 6 0 12 24 51 49 77 29 32 72 57
116 68 56 13 55 14 55 -71z m0 -265 c0 -22 -3 -24 -19 -16 -31 17 -34 41 -6
41 20 0 25 -5 25 -25z m3655 -86 c19 -19 20 -35 23 -314 l3 -295 -81 0 -81 0
3 293 c3 312 4 318 53 337 26 11 55 3 80 -21z"/>
<path d="M1025 3981 c-22 -10 -56 -33 -74 -52 -151 -151 -44 -409 169 -409
213 0 320 258 169 409 -47 47 -103 71 -169 71 -32 0 -72 -8 -95 -19z"/>
<path d="M1870 2465 c-208 -51 -366 -211 -415 -420 -57 -240 62 -503 281 -617
128 -67 132 -68 779 -68 646 0 621 -2 693 70 54 53 67 86 67 173 l0 77 70 0
c81 0 134 20 183 70 54 53 67 86 67 173 l0 77 70 0 c81 0 134 20 183 70 46 45
63 84 69 152 7 72 -14 131 -64 183 -77 80 -7 75 -1023 74 -724 -1 -916 -3
-960 -14z m690 -305 l0 -159 414 -3 c391 -3 415 -4 435 -22 29 -26 29 -86 0
-112 -20 -18 -44 -19 -435 -22 l-414 -3 0 -79 0 -79 255 -3 c247 -3 255 -4
276 -25 29 -29 29 -77 0 -106 l-22 -22 -551 -3 c-610 -3 -622 -2 -727 61 -95
57 -161 155 -183 275 -28 150 50 319 183 399 95 57 132 62 467 62 l302 1 0
-160z"/>
</g>
</svg>
